<?xml version="1.0" standalone="no"?><!DOCTYPE svg PUBLIC "-//W3C//DTD SVG 1.1//EN" "http://www.w3.org/Graphics/SVG/1.1/DTD/svg11.dtd"><svg t="1627999179669" class="icon" viewBox="0 0 1269 1024" version="1.1" xmlns="http://www.w3.org/2000/svg" p-id="24568" xmlns:xlink="http://www.w3.org/1999/xlink" width="247.8515625" height="200"><defs><style type="text/css"></style></defs><path d="M449.756863 821.609412l191.146666-228.392157L897.505882 515.513725 736.175686 724.530196z" fill="#F9DE5A" p-id="24569"></path><path d="M886.061176 837.672157c0 60.737255-199.178039 109.929412-444.837647 109.929412S31.824314 844.498824 28.812549 808.96c-0.602353-7.127843-19.777255 9.838431 32.426667-5.621961-10.942745 1.305098 67.563922 22.287059 138.541176 1.505883 93.163922-27.407059 96.476863-39.654902 125.389804-52.304314 5.421176-2.409412 108.222745 77.502745 132.316863 69.471372 15.460392-5.12 220.260392-77.301961 220.260392-77.30196 125.088627 19.375686 208.313725 53.810196 208.313725 92.963137z" fill="#6A6C6C" p-id="24570"></path><path d="M445.941961 841.888627c-8.432941 0-16.263529-5.320784-19.07451-13.653333-3.513725-10.541176 2.108235-21.88549 12.649412-25.399216l282.704313-94.770196c10.541176-3.513725 21.88549 2.108235 25.399216 12.649412s-2.108235 21.88549-12.649412 25.399216l-282.704313 94.770196c-2.007843 0.702745-4.216471 1.003922-6.324706 1.003921z" fill="#999C9E" p-id="24571"></path><path d="M451.463529 928.928627c-4.116078 0-8.131765-1.204706-11.545098-3.614117-5.220392-3.71451-8.432941-9.637647-8.533333-16.062745l-1.706667-87.240785c-0.200784-8.734118 5.320784-16.564706 13.653334-19.375686l286.418823-97.079216c6.023529-2.007843 12.749804-1.104314 17.970196 2.610197 5.220392 3.71451 8.432941 9.637647 8.533334 16.062745l1.706666 87.240784c0.200784 8.734118-5.320784 16.564706-13.653333 19.375686l-286.418824 97.079216c-2.108235 0.602353-4.316863 1.003922-6.425098 1.003921z m18.672942-92.963137l0.903529 45.076079 246.462745-83.526275-0.903529-45.076078-246.462745 83.526274zM134.927059 583.880784c-6.123922 0-12.147451-2.81098-16.163137-8.131764-21.88549-29.414902-38.851765-62.042353-50.597647-97.079216-12.047059-36.141176-18.17098-74.089412-18.170981-112.740392 0-91.457255 34.133333-177.392941 95.974902-242.145883 30.218039-31.523137 65.355294-56.32 104.508235-73.687843C291.137255 32.225882 334.305882 23.090196 378.88 23.090196c38.952157 0 77.101176 7.027451 113.342745 20.881569 34.936471 13.352157 67.363137 32.828235 96.175686 57.625098 57.72549 49.79451 97.781961 119.16549 112.64 195.363137 2.108235 10.842353-4.919216 21.383529-15.86196 23.592157-10.842353 2.108235-21.383529-4.919216-23.592157-15.861961-13.151373-67.363137-48.489412-128.702745-99.488628-172.67451-25.298824-21.785098-53.709804-38.851765-84.329411-50.597647-31.623529-12.047059-64.853333-18.17098-98.886275-18.17098-76.900392 0-149.283137 31.322353-203.796078 88.345098-54.713725 57.223529-84.831373 133.320784-84.831373 214.337255 0 68.065882 21.082353 132.316863 60.837647 185.926274 6.625882 8.934902 4.718431 21.483922-4.116078 28.109804-3.71451 2.610196-7.830588 3.915294-12.047059 3.915294z" fill="#999C9E" p-id="24572"></path><path d="M34.534902 824.821961c-8.332549 0-16.163137-5.220392-18.974118-13.653334-3.614118-10.541176 2.007843-21.88549 12.54902-25.499607 34.133333-11.64549 62.343529-30.920784 81.719216-55.918432 18.974118-24.495686 29.013333-53.910588 29.013333-85.132549 0-30.619608-11.243922-60.335686-32.426667-85.734902-7.127843-8.533333-5.923137-21.182745 2.509804-28.310588 8.533333-7.127843 21.182745-5.923137 28.310588 2.509804 27.306667 32.727843 41.763137 71.278431 41.763138 111.535686 0 81.418039-52.906667 150.086275-137.938824 179.099608-2.208627 0.702745-4.316863 1.104314-6.52549 1.104314z" fill="#999C9E" p-id="24573"></path><path d="M284.310588 266.641569m-39.454117 0a39.454118 39.454118 0 1 0 78.908235 0 39.454118 39.454118 0 1 0-78.908235 0Z" fill="#999C9E" p-id="24574"></path><path d="M438.211765 200.282353m-33.430589 0a33.430588 33.430588 0 1 0 66.861177 0 33.430588 33.430588 0 1 0-66.861177 0Z" fill="#999C9E" p-id="24575"></path><path d="M968.884706 274.17098c-2.409412 0-4.718431-0.401569-7.127843-1.305098-10.340392-3.915294-15.560784-15.560784-11.64549-25.901176 3.212549-8.633725 4.919216-17.66902 4.919215-27.00549 0-42.064314-34.233725-76.197647-76.197647-76.197647-11.043137 0-20.078431-9.035294-20.078431-20.078432s9.035294-20.078431 20.078431-20.078431c64.150588 0 116.35451 52.203922 116.35451 116.35451 0 14.155294-2.509804 28.009412-7.529412 41.160784-3.011765 8.131765-10.641569 13.05098-18.773333 13.05098z" fill="#999C9E" p-id="24576"></path><path d="M922.704314 279.592157c-1.104314 0-2.30902-0.100392-3.413334-0.301177-10.942745-1.907451-18.271373-12.247843-16.363921-23.190588 0.702745-4.015686 1.003922-8.031373 1.003921-12.147451 0-30.117647-19.07451-57.123137-47.585882-67.162353-10.440784-3.71451-15.962353-15.159216-12.247843-25.6 3.71451-10.440784 15.159216-15.962353 25.6-12.247843C914.17098 154.603922 944.087843 196.768627 944.087843 243.952941c0 6.324706-0.501961 12.649412-1.606274 18.873726-1.706667 9.838431-10.139608 16.76549-19.777255 16.76549zM236.523922 669.515294c-2.108235 0-4.216471-0.301176-6.324706-1.003921-45.076078-15.058824-75.39451-57.022745-75.39451-104.608628 0-12.54902 2.108235-24.897255 6.224314-36.643137 3.71451-10.440784 15.159216-15.962353 25.6-12.247843 10.440784 3.71451 15.962353 15.159216 12.247843 25.6-2.610196 7.42902-3.915294 15.259608-3.915294 23.29098 0 30.218039 19.275294 57.022745 47.987451 66.56 10.541176 3.513725 16.163137 14.858039 12.749804 25.399216-2.911373 8.332549-10.741961 13.653333-19.174902 13.653333zM641.003922 613.295686c-4.015686 0-7.93098-1.204706-11.243922-3.413333-5.019608-3.413333-8.232157-8.83451-8.734118-14.858039l-12.247843-141.653334c-0.803137-9.436863 5.12-18.17098 14.155294-20.98196L879.435294 354.68549c5.822745-1.706667 12.047059-0.803137 17.066667 2.610196 5.019608 3.413333 8.232157 8.83451 8.734117 14.858039l12.247844 141.653334c0.803137 9.436863-5.12 18.17098-14.155295 20.981961L646.726275 612.392157c-1.907451 0.602353-3.814902 0.903529-5.722353 0.903529z m9.035294-147.275294l8.734117 100.793726 217.248628-65.756863-8.734118-100.793726-217.248627 65.756863z" fill="#999C9E" p-id="24577"></path><path d="M728.646275 747.118431c-6.324706 0-12.448627-3.011765-16.363922-8.332549-5.320784-7.42902-4.919216-17.468235 0.803137-24.495686l172.072157-209.418039c2.208627-2.710588 5.12-4.818824 8.432941-6.02353l78.506667-29.615686c8.533333-3.212549 18.070588-0.301176 23.391372 7.127843 5.320784 7.42902 4.919216 17.468235-0.803137 24.495687L822.613333 710.174118c-2.208627 2.710588-5.12 4.818824-8.432941 6.023529l-78.506667 29.615686c-2.208627 0.903529-4.618039 1.305098-7.02745 1.305098z m78.506666-49.694117z m105.712941-162.936471L791.893333 681.662745l3.112157-1.204706 120.972549-147.174902-3.112157 1.204706zM367.736471 705.656471c-6.826667 0-13.552941-3.513725-17.267451-9.838432l-31.924706-53.709804c-5.722353-9.537255-2.509804-21.88549 7.027451-27.507451 9.537255-5.621961 21.88549-2.509804 27.507451 7.027451l31.924706 53.709804c5.722353 9.537255 2.509804 21.88549-7.027451 27.507451-3.212549 1.907451-6.726275 2.81098-10.24 2.810981zM363.620392 496.740392c-4.015686 0-8.031373-1.204706-11.64549-3.71451-9.035294-6.425098-11.143529-18.974118-4.718431-28.009411l108.02196-152.294902c6.425098-9.035294 18.974118-11.143529 28.009412-4.718432 9.035294 6.425098 11.143529 18.974118 4.718432 28.009412L380.084706 488.307451c-3.915294 5.521569-10.139608 8.432941-16.464314 8.432941z" fill="#999C9E" p-id="24578"></path><path d="M641.003922 613.295686c-6.625882 0-13.151373-3.312941-16.966275-9.33647L454.676078 335.10902c-5.923137-9.336471-3.112157-21.785098 6.324706-27.708236 9.336471-5.923137 21.785098-3.112157 27.708236 6.324706l169.261176 268.749804c5.923137 9.336471 3.112157 21.785098-6.324706 27.708235-3.312941 2.108235-7.027451 3.112157-10.641568 3.112157z" fill="#999C9E" p-id="24579"></path><path d="M471.642353 344.44549c-10.340392 0-19.07451-7.93098-19.978039-18.371765-0.903529-11.043137 7.328627-20.781176 18.371764-21.684705l219.557647-18.371765c11.043137-0.903529 20.781176 7.328627 21.684706 18.371765s-7.328627 20.781176-18.371764 21.684705l-219.557647 18.371765h-1.706667zM816.489412 414.72c-6.52549 0-13.05098-3.212549-16.865883-9.135686l-15.460392-23.792941c-6.023529-9.336471-3.413333-21.684706 5.923138-27.808628 9.336471-6.023529 21.785098-3.413333 27.808627 5.923137l15.460392 23.792942c6.023529 9.336471 3.413333 21.684706-5.923137 27.808627-3.413333 2.208627-7.228235 3.212549-10.942745 3.212549zM122.177255 832.351373c-28.511373 0-58.829804-2.509804-90.75451-7.529412-10.942745-1.706667-18.472157-12.047059-16.76549-22.989804 1.706667-10.942745 12.047059-18.472157 22.989804-16.76549 73.98902 11.64549 137.637647 8.83451 189.239216-8.232157 39.55451-13.151373 60.134902-31.121569 67.96549-37.847843 4.417255-3.915294 10.541176-9.135686 20.078431-7.730196 5.822745 0.803137 11.043137 4.216471 14.155294 9.135686 5.923137 9.336471 3.212549 21.785098-6.224314 27.708235-0.301176 0.200784-0.702745 0.401569-1.104313 0.602353-0.200784 0.200784-0.401569 0.401569-0.602353 0.501961-9.436863 8.232157-34.43451 30.017255-81.719216 45.678431-34.635294 11.745882-73.98902 17.468235-117.258039 17.468236z m173.076078-70.174118z m-0.100392-0.100392z m0 0z" fill="#999C9E" p-id="24580"></path><path d="M693.408627 725.835294c-4.015686 0-8.031373-1.606275-10.942745-4.718431-11.344314-12.047059-19.275294-20.379608-19.275294-20.379608-5.722353-6.023529-5.521569-15.560784 0.501961-21.283137 6.023529-5.722353 15.560784-5.521569 21.283137 0.50196 0 0 7.93098 8.332549 19.375687 20.48 5.722353 6.023529 5.421176 15.560784-0.602353 21.283138-2.911373 2.81098-6.625882 4.116078-10.340393 4.116078zM866.785882 829.941961c-6.726275 0-12.850196-4.618039-14.556862-11.444706-2.007843-8.031373 2.911373-16.263529 10.942745-18.271373 11.545098-2.911373 23.893333-7.42902 36.643137-13.552941 1.807059-1.204706 6.224314-4.216471 12.348235-8.232157 6.927059-4.618039 16.263529-2.710588 20.881569 4.216471 4.618039 6.927059 2.710588 16.263529-4.216471 20.881569l-12.950588 8.633725c-0.602353 0.401569-1.204706 0.803137-1.907451 1.104314-14.958431 7.228235-29.515294 12.749804-43.469804 16.163137-1.305098 0.401569-2.509804 0.501961-3.71451 0.501961z m-77.000784-6.02353c-2.30902 0-4.718431-0.501961-6.927059-1.706666-22.487843-11.64549-33.932549-28.009412-37.446274-33.631373-2.81098-3.112157-5.822745-6.425098-9.035294-9.938823-5.621961-6.123922-5.220392-15.661176 0.903529-21.283138 6.123922-5.621961 15.661176-5.220392 21.283137 0.90353 3.614118 3.915294 7.127843 7.730196 10.24 11.143529 0.803137 0.903529 1.40549 1.706667 2.007843 2.810981 0.602353 0.903529 8.633725 14.155294 26.001569 23.190588 7.42902 3.814902 10.24 12.950588 6.425098 20.279216-2.81098 5.320784-8.031373 8.232157-13.452549 8.232156zM987.256471 763.984314c-5.220392 0-10.24-2.710588-13.050981-7.529412-4.116078-7.228235-1.706667-16.464314 5.521569-20.580392 17.769412-10.24 24.796863-12.850196 28.511372-13.854118 8.031373-2.30902 16.363922 2.30902 18.572549 10.340392 2.30902 8.031373-2.30902 16.363922-10.340392 18.572549-1.204706 0.301176-6.425098 2.208627-21.785098 11.043138-2.30902 1.305098-4.919216 2.007843-7.429019 2.007843zM1098.992941 765.69098c-21.182745 0-38.349804-17.167059-38.349804-38.349804s17.167059-38.349804 38.349804-38.349803 38.349804 17.167059 38.349804 38.349803-17.267451 38.349804-38.349804 38.349804z m0-63.749019c-13.95451 0-25.298824 11.344314-25.298823 25.298823s11.344314 25.298824 25.298823 25.298824 25.298824-11.344314 25.298824-25.298824-11.344314-25.298824-25.298824-25.298823z" fill="#878787" p-id="24581"></path><path d="M1075.902745 709.872941c-1.807059 0-3.614118-0.702745-5.019608-2.108235l-9.838431-9.838431c-2.710588-2.710588-2.710588-7.228235 0-9.938824s7.228235-2.710588 9.938823 0l9.838432 9.838431c2.710588 2.710588 2.710588 7.228235 0 9.938824-1.305098 1.40549-3.112157 2.108235-4.919216 2.108235zM1109.232941 702.443922c-0.903529 0-1.907451-0.200784-2.81098-0.602353-3.513725-1.505882-5.220392-5.722353-3.614118-9.236079l4.015686-9.135686c1.505882-3.513725 5.722353-5.220392 9.236079-3.614118 3.513725 1.505882 5.220392 5.722353 3.614117 9.236079l-4.015686 9.135686c-1.204706 2.610196-3.71451 4.216471-6.425098 4.216471z" fill="#878787" p-id="24582"></path><path d="M1064.156863 764.687059c-1.706667 0-3.413333-0.501961-5.019608-1.40549-12.54902-7.830588-18.271373-20.48-15.962353-35.639216 1.505882-10.24 6.123922-18.17098 6.726274-19.07451 2.710588-4.517647 8.533333-6.023529 13.050981-3.312941s6.023529 8.533333 3.312941 13.05098c-0.100392 0.200784-3.413333 5.923137-4.316863 12.54902-1.003922 7.42902 1.204706 12.448627 7.228236 16.163137 4.517647 2.81098 5.822745 8.633725 3.112156 13.151373-1.807059 2.911373-4.919216 4.517647-8.131764 4.517647z" fill="#F9DE5A" p-id="24583"></path><path d="M1044.781176 769.204706c-2.007843 0-4.015686-0.602353-5.722352-1.907451-21.182745-15.962353-15.259608-43.469804-9.236079-55.717647 2.30902-4.718431 8.031373-6.625882 12.749804-4.316863 4.718431 2.30902 6.625882 8.031373 4.316863 12.749804-0.501961 0.903529-10.24 21.684706 3.614117 32.12549 4.216471 3.212549 5.019608 9.135686 1.907451 13.352157-1.907451 2.409412-4.718431 3.71451-7.629804 3.71451z" fill="#F9DE5A" p-id="24584"></path><path d="M1086.142745 722.321569m-6.224314 0a6.224314 6.224314 0 1 0 12.448628 0 6.224314 6.224314 0 1 0-12.448628 0Z" fill="#878787" p-id="24585"></path><path d="M1112.244706 719.209412m-6.224314 0a6.224314 6.224314 0 1 0 12.448628 0 6.224314 6.224314 0 1 0-12.448628 0Z" fill="#878787" p-id="24586"></path><path d="M1046.989804 768.501961c-3.513725 0-7.127843-0.401569-10.741961-1.40549-12.649412-3.513725-22.387451-13.151373-29.013333-28.511373-1.003922-2.409412-0.803137-5.220392 0.602353-7.42902 8.232157-13.251765 31.824314-35.84 61.941961-26.10196 3.814902 1.204706 6.123922 5.12 5.421176 9.135686-1.907451 10.440784-1.40549 26.503529 4.417255 29.615686 2.509804 1.305098 4.116078 3.814902 4.316863 6.52549 0.200784 2.81098-1.104314 5.421176-3.312942 7.127844-1.003922 0.401569-16.062745 11.043137-33.631372 11.043137z m-23.190588-32.225883c4.316863 8.332549 9.938824 13.452549 16.564706 15.36 7.93098 2.208627 16.363922-0.200784 22.387451-2.81098-5.12-9.236078-5.220392-21.785098-4.517648-29.816471-8.432941-1.003922-16.665098 1.606275-24.495686 7.629804-4.417255 3.212549-7.830588 7.027451-9.938823 9.637647z" fill="#878787" p-id="24587"></path><path d="M1049.298824 715.093333c-0.301176 0-0.602353 0-1.003922-0.100392-0.501961-0.100392-11.344314-1.907451-22.78902-7.730196-15.962353-8.131765-25.198431-19.978039-26.804706-34.334118-0.501961-4.316863-0.602353-14.456471 8.232157-15.86196 6.927059-1.104314 16.665098 5.521569 28.912942 19.57647 7.830588 8.934902 17.468235 22.487843 19.275294 31.121569 0.401569 1.907451-0.200784 3.915294-1.505883 5.421176-1.104314 1.204706-2.710588 1.907451-4.316862 1.907451z m-38.751373-45.276862c0 0.501961 0 1.104314 0.100392 1.807058 1.706667 15.661176 16.464314 23.993725 27.507451 28.109804-2.610196-4.116078-6.123922-8.934902-10.440784-14.054902-7.93098-9.436863-13.95451-14.155294-17.167059-15.86196z" fill="#878787" p-id="24588"></path><path d="M1048.796863 713.08549c-0.602353 0-1.204706-0.100392-1.807059-0.301176-1.907451-0.602353-3.312941-2.108235-3.915294-4.015687-0.100392-0.401569-3.212549-11.043137-3.011765-23.893333 0.301176-17.869804 7.027451-31.422745 19.275294-39.052549 3.71451-2.30902 12.749804-6.826667 17.869804 0.501961 4.015686 5.722353 2.30902 17.367843-5.12 34.534902-4.718431 10.942745-12.649412 25.6-19.57647 30.920784-1.104314 0.903529-2.409412 1.305098-3.71451 1.305098z m18.472157-57.926274c-0.401569 0.200784-1.003922 0.501961-1.606275 0.903529-13.352157 8.332549-14.456471 25.298824-13.352157 36.944314 2.610196-4.116078 5.421176-9.436863 8.131765-15.560784 5.019608-11.243922 6.625882-18.672941 6.826667-22.287059z" fill="#878787" p-id="24589"></path><path d="M1118.368627 689.192157c-8.332549 0-15.159216-6.826667-15.159215-15.159216s6.826667-15.159216 15.159215-15.159216 15.159216 6.826667 15.159216 15.159216-6.726275 15.159216-15.159216 15.159216z m0-18.371765c-1.706667 0-3.112157 1.40549-3.112156 3.112157s1.40549 3.112157 3.112156 3.112157 3.112157-1.40549 3.112157-3.112157-1.40549-3.112157-3.112157-3.112157zM1059.739608 701.941961c-8.633725 0-15.661176-7.027451-15.661177-15.661177s7.027451-15.661176 15.661177-15.661176 15.661176 7.027451 15.661176 15.661176-7.027451 15.661176-15.661176 15.661177z m0-18.371765c-1.505882 0-2.610196 1.204706-2.610196 2.610196s1.204706 2.610196 2.610196 2.610196 2.610196-1.204706 2.610196-2.610196-1.104314-2.610196-2.610196-2.610196zM1100.498824 751.033725c-6.726275 0-12.147451-3.614118-13.151373-9.035294-0.501961-3.011765 1.505882-5.822745 4.517647-6.425098 2.81098-0.501961 5.521569 1.204706 6.224314 3.915294 0.501961 0.301176 1.907451 0.702745 3.814902 0.301177 1.907451-0.301176 3.112157-1.204706 3.513725-1.606275-0.200784-2.81098 1.706667-5.320784 4.517647-5.822745 3.011765-0.501961 5.822745 1.505882 6.425098 4.517647 0.602353 3.413333-0.702745 6.927059-3.614117 9.637647-2.30902 2.108235-5.421176 3.614118-8.934902 4.216471-1.104314 0.200784-2.208627 0.301176-3.312941 0.301176z m-2.208628-11.043137z m7.228235-1.204706zM782.456471 390.927059c-61.339608 0-111.334902-49.894902-111.334902-111.334902 0-61.339608 49.894902-111.334902 111.334902-111.334902s111.334902 49.894902 111.334902 111.334902-49.894902 111.334902-111.334902 111.334902z m0-182.512941c-39.253333 0-71.178039 31.924706-71.17804 71.178039 0 39.253333 31.924706 71.178039 71.17804 71.178039s71.178039-31.924706 71.178039-71.178039c0-39.253333-31.924706-71.178039-71.178039-71.178039zM301.578039 658.672941c-60.737255 0-110.230588-49.493333-110.230588-110.230588s49.493333-110.230588 110.230588-110.230588 110.230588 49.493333 110.230588 110.230588S362.415686 658.672941 301.578039 658.672941z m0-180.304314c-38.65098 0-70.073725 31.422745-70.073725 70.073726s31.422745 70.073725 70.073725 70.073725 70.073725-31.422745 70.073726-70.073725-31.422745-70.073725-70.073726-70.073726z" fill="#F9DE5A" p-id="24590"></path><path d="M445.941961 841.888627c-3.413333 0-6.826667-0.903529-9.938824-2.610196l-131.112157-74.591372c-5.220392-3.011765-8.83451-8.131765-9.838431-14.054902s0.602353-11.946667 4.517647-16.464314l193.15451-225.380392c6.224314-7.328627 16.76549-9.135686 25.198431-4.417255l131.112157 74.591373c5.220392 3.011765 8.83451 8.131765 9.838431 14.054902s-0.602353 11.946667-4.517647 16.464313L461.201569 834.861176c-3.915294 4.618039-9.537255 7.027451-15.259608 7.027451zM345.951373 741.898039l95.573333 54.312157 166.550588-194.359216-95.573333-54.312156L345.951373 741.898039z" fill="#999C9E" p-id="24591"></path></svg>